<?xml version="1.0" encoding="utf-8"?>
<!-- Generator: Adobe Illustrator 28.3.0, SVG Export Plug-In . SVG Version: 6.00 Build 0)  -->
<svg version="1.1" id="Layer_1" xmlns="http://www.w3.org/2000/svg" xmlns:xlink="http://www.w3.org/1999/xlink" x="0px" y="0px"
	 viewBox="0 0 128 128" style="enable-background:new 0 0 128 128;" xml:space="preserve">
<style type="text/css">
	.st0{fill:#5E182A;stroke:#212532;stroke-width:4;}
	.st1{fill:#FFFFFF;}
	.st2{fill:#E63559;}
	.st3{fill:#414042;}
</style>
<path class="st0" d="M16,2h96c7.7,0,14,6.3,14,14v96c0,7.7-6.3,14-14,14H16c-7.7,0-14-6.3-14-14V16C2,8.3,8.3,2,16,2z"/>
<g transform="scale(.101) translate(122 122)">
	<g>
		<path class="st1" d="M105,673v33c271.3,236,542.7,236,814,0v-33H105z"/>
		<path class="st2" d="M105,673l152,14c8,0.7,13,5.3,15,14l4,67l132,10l8-61c1.3-7.3,6.3-12.3,15-15h162c8.7,2.7,13.7,7.7,15,15
			l8,61l132-10l4-67c2-8.7,7-13.3,15-14l152-14V427c20-26,38.7-53,56-81c-23.3-39.3-51-75.3-83-108c-28.7,13.3-56,29-82,47
			c-26.7-24.7-56-46-88-64c4.7-34,7.3-68,8-102c-39.3-18.7-80.3-32.7-123-42c-17.3,28.7-32.7,58.3-46,89c-32.7-4.7-65.3-4.7-98,0
			c-13.3-30.7-28.7-60.3-46-89c-42.7,9.3-83.7,23.3-123,42c0.7,34,3.3,68,8,102c-32,18-61.3,39.3-88,64c-26-18-53.3-33.7-82-47
			c-32,32.7-59.7,68.7-83,108c17.3,28,36,55,56,81V673z M105,706v39c0,276,813,276,814,0v-39l-134,12l-5,69c-1.3,6.7-6,11-14,13
			l-162,11c-8,0-13.3-3.7-16-11l-10-65H446l-10,65c-2.7,7.3-8,11-16,11l-162-11c-8-2-12.7-6.3-14-13l-5-69L105,706z"/>
		<path class="st1" d="M483,600c0,34,58,34,58,0v-86c0-34-58-34-58,0V600z"/>
		<circle class="st1" cx="725" cy="526" r="90"/>
		<circle class="st1" cx="299" cy="526" r="90"/>
	</g>
	<g>
		<circle class="st3" cx="307" cy="532" r="60"/>
		<circle class="st3" cx="717" cy="532" r="60"/>
	</g>
</g>
</svg>
